<?xml version="1.0" encoding="UTF-8" standalone="no"?><svg xmlns="http://www.w3.org/2000/svg" version="1.1" xmlns:xlink="http://www.w3.org/1999/xlink" xmlns:svgjs="http://svgjs.dev/svgjs" width="1000" height="113" viewBox="0 0 1000 113"><g transform="matrix(1,0,0,1,-0.6060588403850602,0.15563212225180934)"><svg viewBox="0 0 396 45" data-background-color="#ffffff" preserveAspectRatio="xMidYMid meet" height="113" width="1000" xmlns="http://www.w3.org/2000/svg" xmlns:xlink="http://www.w3.org/1999/xlink"><g id="tight-bounds" transform="matrix(1,0,0,1,0.23999930079247633,-0.0619772822745972)"><svg viewBox="0 0 395.52 45.12395446806606" height="45.12395446806606" width="395.52"><g><svg viewBox="0 0 458.9879600657124 52.36486602800296" height="45.12395446806606" width="395.52"><g transform="matrix(1,0,0,1,0,7.237112453942526)"><svg viewBox="0 0 395.52 37.890641120117905" height="37.890641120117905" width="395.52"><g id="textblocktransform"><svg viewBox="0 0 395.52 37.890641120117905" height="37.890641120117905" width="395.52" id="textblock"><g><svg viewBox="0 0 395.52 37.890641120117905" height="37.890641120117905" width="395.52"><g transform="matrix(1,0,0,1,0,0)"><svg width="395.52" viewBox="2.5 -38 407.07000732421875 39" height="37.890641120117905" data-palette-color="#a437db"><g class="undefined-text-0" data-fill-palette-color="primary" id="text-0"><path d="M13.9 1Q10.25 1 8.08-0.23 5.9-1.45 4.3-3.9L4.3-3.9 3.6-0.95 2.6-0.95 2.6-14.55 3.95-14.55Q3.95-7.75 6.33-3.8 8.7 0.15 13.4 0.15L13.4 0.15Q15.6 0.15 17.25-1.07 18.9-2.3 19.75-4.3 20.6-6.3 20.6-8.55L20.6-8.55Q20.6-11.3 19.38-13.13 18.15-14.95 16.35-16 14.55-17.05 11.6-18.3L11.6-18.3Q8.55-19.6 6.75-20.68 4.95-21.75 3.73-23.58 2.5-25.4 2.5-28.2L2.5-28.2Q2.5-31 3.83-33.25 5.15-35.5 7.43-36.75 9.7-38 12.55-38L12.55-38Q14.3-38 16.03-37.4 17.75-36.8 18.95-35.88 20.15-34.95 20.4-34.05L20.4-34.05 20.95-37.9 21.9-37.9 21.9-27.95 20.75-27.95Q20.75-30.2 19.95-32.25 19.15-34.3 17.48-35.6 15.8-36.9 13.35-36.9L13.35-36.9Q10.2-36.9 8.22-34.8 6.25-32.7 6.25-28.95L6.25-28.95Q6.25-26.8 7.35-25.33 8.45-23.85 10.08-22.9 11.7-21.95 14.45-20.7L14.45-20.7Q17.65-19.25 19.63-18.03 21.6-16.8 22.98-14.73 24.35-12.65 24.35-9.55L24.35-9.55Q24.35-7.05 22.9-4.58 21.45-2.1 19.05-0.55 16.65 1 13.9 1L13.9 1ZM56.45-3Q57.15-1.9 57.77-1.4 58.4-0.9 59.3-0.9L59.3-0.9Q60.05-0.9 61.05-1.25L61.05-1.25 61.05 0 49 0 49-1.25Q50-0.95 50.75-0.95L50.75-0.95Q51.6-0.95 52.12-1.28 52.65-1.6 52.65-2.15L52.65-2.15Q52.65-2.55 52.35-3L52.35-3 40.95-21.45 36.35-16.45 36.35-3Q36.35-2 36.87-1.48 37.4-0.95 38.35-0.95L38.35-0.95Q39.15-0.95 40.1-1.25L40.1-1.25 40.1 0 28.85 0 28.85-1.25Q29.8-0.95 30.6-0.95L30.6-0.95Q31.55-0.95 32.07-1.48 32.6-2 32.6-3L32.6-3 32.6-34Q32.6-35 32.07-35.52 31.55-36.05 30.6-36.05L30.6-36.05Q29.8-36.05 28.85-35.75L28.85-35.75 28.85-37 40.1-37 40.1-35.75Q39.15-36.05 38.35-36.05L38.35-36.05Q37.4-36.05 36.87-35.52 36.35-35 36.35-34L36.35-34 36.35-17.85 50.65-34Q51.1-34.55 51.1-34.95L51.1-34.95Q51.1-35.45 50.7-35.75 50.3-36.05 49.6-36.05L49.6-36.05Q48.95-36.05 48.15-35.75L48.15-35.75 48.15-37 58.2-37 58.2-35.75Q57.35-36 56.7-36L56.7-36Q55.65-36 54.6-35.52 53.55-35.05 52.7-34.2L52.7-34.2 43.6-24.35 56.45-3ZM61.05-1.25Q62-0.95 62.8-0.95L62.8-0.95Q63.75-0.95 64.27-1.48 64.8-2 64.8-3L64.8-3 64.8-34Q64.8-35 64.27-35.52 63.75-36.05 62.8-36.05L62.8-36.05Q62-36.05 61.05-35.75L61.05-35.75 61.05-37 72.3-37 72.3-35.75Q71.34-36.05 70.55-36.05L70.55-36.05Q69.59-36.05 69.07-35.52 68.55-35 68.55-34L68.55-34 68.55-3Q68.55-2 69.07-1.48 69.59-0.95 70.55-0.95L70.55-0.95Q71.34-0.95 72.3-1.25L72.3-1.25 72.3 0 61.05 0 61.05-1.25ZM97.59-37.05L108.39-37.05 108.39-35.8Q107.39-36.1 106.49-36.1L106.49-36.1Q105.24-36.1 104.47-35.55 103.69-35 103.69-34.05L103.69-34.05 103.69 1 102.54 1 80.44-33.35 80.49-3Q80.49-2.05 81.42-1.5 82.34-0.95 83.69-0.95L83.69-0.95Q84.74-0.95 85.69-1.25L85.69-1.25 85.69 0 74.79 0 74.79-1.25Q75.74-0.95 76.69-0.95L76.69-0.95Q77.89-0.95 78.62-1.5 79.34-2.05 79.34-3L79.34-3 79.34-34Q79.34-34.95 78.59-35.5 77.84-36.05 76.64-36.05L76.64-36.05Q75.79-36.05 74.79-35.75L74.79-35.75 74.79-37 82.64-37 102.54-6.85 102.54-34.05Q102.54-35 101.69-35.55 100.84-36.1 99.54-36.1L99.54-36.1Q98.54-36.1 97.59-35.8L97.59-35.8 97.59-37.05ZM123.29 1Q119.64 1 117.47-0.23 115.29-1.45 113.69-3.9L113.69-3.9 112.99-0.95 111.99-0.95 111.99-14.55 113.34-14.55Q113.34-7.75 115.72-3.8 118.09 0.15 122.79 0.15L122.79 0.15Q124.99 0.15 126.64-1.07 128.29-2.3 129.14-4.3 129.99-6.3 129.99-8.55L129.99-8.55Q129.99-11.3 128.77-13.13 127.54-14.95 125.74-16 123.94-17.05 120.99-18.3L120.99-18.3Q117.94-19.6 116.14-20.68 114.34-21.75 113.12-23.58 111.89-25.4 111.89-28.2L111.89-28.2Q111.89-31 113.22-33.25 114.54-35.5 116.82-36.75 119.09-38 121.94-38L121.94-38Q123.69-38 125.42-37.4 127.14-36.8 128.34-35.88 129.54-34.95 129.79-34.05L129.79-34.05 130.34-37.9 131.29-37.9 131.29-27.95 130.14-27.95Q130.14-30.2 129.34-32.25 128.54-34.3 126.87-35.6 125.19-36.9 122.74-36.9L122.74-36.9Q119.59-36.9 117.62-34.8 115.64-32.7 115.64-28.95L115.64-28.95Q115.64-26.8 116.74-25.33 117.84-23.85 119.47-22.9 121.09-21.95 123.84-20.7L123.84-20.7Q127.04-19.25 129.02-18.03 130.99-16.8 132.37-14.73 133.74-12.65 133.74-9.55L133.74-9.55Q133.74-7.05 132.29-4.58 130.84-2.1 128.44-0.55 126.04 1 123.29 1L123.29 1ZM164.04-11.3L164.74-11.3Q164.04-10.65 163.81-9.25 163.59-7.85 163.59-5.1L163.59-5.1 163.59 0 138.24 0 138.24-1.25Q139.19-0.95 139.99-0.95L139.99-0.95Q140.94-0.95 141.46-1.48 141.99-2 141.99-3L141.99-3 141.99-34Q141.99-35 141.46-35.52 140.94-36.05 139.99-36.05L139.99-36.05Q139.19-36.05 138.24-35.75L138.24-35.75 138.24-37 161.49-37 161.34-35.55Q161.19-34.6 161.19-33.1L161.19-33.1Q161.19-30.15 161.89-28.5L161.89-28.5 161.09-28.5Q160.54-29.55 160.29-31.25L160.29-31.25Q159.94-33.05 159.34-34.08 158.74-35.1 156.89-35.8 155.04-36.5 151.34-36.5L151.34-36.5Q148.69-36.5 147.49-35.6 146.29-34.7 146.06-33.68 145.84-32.65 145.74-30.75L145.74-30.75 145.74-21.25 152.64-21.25Q154.09-21.25 154.66-21.33 155.24-21.4 155.54-21.75 155.84-22.1 155.84-22.95L155.84-22.95Q155.84-24.45 155.66-25.2 155.49-25.95 154.64-25.95L154.64-25.95 154.64-26.6 156.59-26.6 156.59-15 154.64-15 154.64-15.7Q155.49-15.7 155.66-16.53 155.84-17.35 155.84-18.9L155.84-18.9Q155.84-19.7 155.16-19.98 154.49-20.25 152.64-20.3L152.64-20.3 145.74-20.3 145.74-6.25Q145.84-4.55 146.14-3.43 146.44-2.3 147.71-1.4 148.99-0.5 151.64-0.5L151.64-0.5Q155.94-0.5 158.19-1.43 160.44-2.35 161.24-3.73 162.04-5.1 162.64-7.45L162.64-7.45Q163.24-10 164.04-11.3L164.04-11.3ZM184.59 1Q179.54 1 175.84-1.68 172.14-4.35 170.21-8.85 168.29-13.35 168.24-18.75L168.24-18.75Q168.19-23 169.79-27.43 171.39-31.85 174.94-34.93 178.49-38 184.09-38L184.09-38Q189.74-38 193.36-35.08 196.99-32.15 198.61-27.75 200.24-23.35 200.24-18.75L200.24-18.75Q200.24-13.3 198.49-8.83 196.74-4.35 193.21-1.68 189.69 1 184.59 1L184.59 1ZM184.59 0Q190.64 0 193.36-5.23 196.09-10.45 196.04-18.75L196.04-18.75Q195.99-23.05 194.71-27.25 193.44-31.45 190.76-34.23 188.09-37 184.09-37L184.09-37Q180.04-37 177.44-33.98 174.84-30.95 173.66-26.6 172.49-22.25 172.49-18.2L172.49-18.2Q172.49-13.1 173.81-9 175.14-4.9 177.86-2.45 180.59 0 184.59 0L184.59 0ZM221.28 1Q217.98 1 215.16-0.25 212.33-1.5 210.46-4.38 208.58-7.25 208.48-11.85L208.48-11.85 208.48-34Q208.48-35 207.96-35.52 207.43-36.05 206.48-36.05L206.48-36.05Q205.68-36.05 204.73-35.75L204.73-35.75 204.73-37 206.63-36.95Q209.13-36.85 210.43-36.85L210.43-36.85Q211.73-36.85 214.13-36.95L214.13-36.95 215.98-37 215.98-35.75Q215.03-36.05 214.23-36.05L214.23-36.05Q213.28-36.05 212.76-35.52 212.23-35 212.23-34L212.23-34 212.23-12.45Q212.23-8.05 213.63-5.25 215.03-2.45 217.13-1.2 219.23 0.05 221.48 0.05L221.48 0.05Q227.03 0.05 229.18-3.85 231.33-7.75 231.33-12.8L231.33-12.8 231.33-34.05Q231.33-35 230.51-35.55 229.68-36.1 228.38-36.1L228.38-36.1Q227.38-36.1 226.43-35.8L226.43-35.8 226.43-37 237.08-37 237.08-35.8Q236.08-36.1 235.23-36.1L235.23-36.1Q234.13-36.1 233.46-35.55 232.78-35 232.78-34.05L232.78-34.05 232.78-12.45Q232.73-8.75 231.46-5.7 230.18-2.65 227.61-0.83 225.03 1 221.28 1L221.28 1ZM260.23-11.3L261.18-11.3Q260.48-10.65 260.25-9.25 260.03-7.85 260.03-5.1L260.03-5.1 260.03 0 240.08 0 240.08-1.25Q241.03-0.95 241.83-0.95L241.83-0.95Q242.78-0.95 243.31-1.48 243.83-2 243.83-3L243.83-3 243.83-34Q243.83-35 243.31-35.52 242.78-36.05 241.83-36.05L241.83-36.05Q241.03-36.05 240.08-35.75L240.08-35.75 240.08-37 251.33-37 251.33-35.75Q250.38-36.05 249.58-36.05L249.58-36.05Q248.63-36.05 248.11-35.52 247.58-35 247.58-34L247.58-34 247.58-6.25Q247.58-3.3 248.58-1.9 249.58-0.5 252.08-0.5L252.08-0.5Q254.88-0.5 256.28-1.28 257.68-2.05 258.13-3.23 258.58-4.4 258.88-6.55L258.88-6.55Q259.08-8.2 259.33-9.25 259.58-10.3 260.23-11.3L260.23-11.3ZM279.73 1Q276.43 1 273.6-0.25 270.78-1.5 268.9-4.38 267.03-7.25 266.93-11.85L266.93-11.85 266.93-34Q266.93-35 266.4-35.52 265.88-36.05 264.93-36.05L264.93-36.05Q264.13-36.05 263.18-35.75L263.18-35.75 263.18-37 265.08-36.95Q267.58-36.85 268.88-36.85L268.88-36.85Q270.18-36.85 272.58-36.95L272.58-36.95 274.43-37 274.43-35.75Q273.48-36.05 272.68-36.05L272.68-36.05Q271.73-36.05 271.2-35.52 270.68-35 270.68-34L270.68-34 270.68-12.45Q270.68-8.05 272.08-5.25 273.48-2.45 275.58-1.2 277.68 0.05 279.93 0.05L279.93 0.05Q285.48 0.05 287.63-3.85 289.78-7.75 289.78-12.8L289.78-12.8 289.78-34.05Q289.78-35 288.95-35.55 288.13-36.1 286.83-36.1L286.83-36.1Q285.83-36.1 284.88-35.8L284.88-35.8 284.88-37 295.53-37 295.53-35.8Q294.53-36.1 293.68-36.1L293.68-36.1Q292.58-36.1 291.9-35.55 291.23-35 291.23-34.05L291.23-34.05 291.23-12.45Q291.18-8.75 289.9-5.7 288.63-2.65 286.05-0.83 283.48 1 279.73 1L279.73 1ZM323.18-35.55Q323.03-34.6 323.03-33.1L323.03-33.1Q323.03-30.15 323.73-28.5L323.73-28.5 322.93-28.5Q322.38-29.55 322.13-31.25L322.13-31.25Q321.78-33.05 321.18-34.08 320.58-35.1 318.73-35.8 316.88-36.5 313.18-36.5L313.18-36.5Q312.53-36.5 311.73-36.4L311.73-36.4 311.73-3Q311.73-2 312.25-1.48 312.78-0.95 313.73-0.95L313.73-0.95Q314.53-0.95 315.48-1.25L315.48-1.25 315.48 0 304.23 0 304.23-1.25Q305.23-0.95 305.98-0.95L305.98-0.95Q306.93-0.95 307.45-1.48 307.98-2 307.98-3L307.98-3 307.98-36.4Q307.18-36.5 306.58-36.5L306.58-36.5Q302.88-36.5 301.03-35.8 299.18-35.1 298.58-34.08 297.98-33.05 297.63-31.25L297.63-31.25Q297.38-29.55 296.83-28.5L296.83-28.5 296.03-28.5Q296.73-30.15 296.73-33.1L296.73-33.1Q296.73-34.6 296.58-35.55L296.58-35.55 296.43-37 323.33-37 323.18-35.55ZM325.22-1.25Q326.17-0.95 326.97-0.95L326.97-0.95Q327.92-0.95 328.45-1.48 328.97-2 328.97-3L328.97-3 328.97-34Q328.97-35 328.45-35.52 327.92-36.05 326.97-36.05L326.97-36.05Q326.17-36.05 325.22-35.75L325.22-35.75 325.22-37 336.47-37 336.47-35.75Q335.52-36.05 334.72-36.05L334.72-36.05Q333.77-36.05 333.25-35.52 332.72-35 332.72-34L332.72-34 332.72-3Q332.72-2 333.25-1.48 333.77-0.95 334.72-0.95L334.72-0.95Q335.52-0.95 336.47-1.25L336.47-1.25 336.47 0 325.22 0 325.22-1.25ZM357.32 1Q352.27 1 348.57-1.68 344.87-4.35 342.95-8.85 341.02-13.35 340.97-18.75L340.97-18.75Q340.92-23 342.52-27.43 344.12-31.85 347.67-34.93 351.22-38 356.82-38L356.82-38Q362.47-38 366.1-35.08 369.72-32.15 371.35-27.75 372.97-23.35 372.97-18.75L372.97-18.75Q372.97-13.3 371.22-8.83 369.47-4.35 365.95-1.68 362.42 1 357.32 1L357.32 1ZM357.32 0Q363.37 0 366.1-5.23 368.82-10.45 368.77-18.75L368.77-18.75Q368.72-23.05 367.45-27.25 366.17-31.45 363.5-34.23 360.82-37 356.82-37L356.82-37Q352.77-37 350.17-33.98 347.57-30.95 346.4-26.6 345.22-22.25 345.22-18.2L345.22-18.2Q345.22-13.1 346.55-9 347.87-4.9 350.6-2.45 353.32 0 357.32 0L357.32 0ZM398.77-37.05L409.57-37.05 409.57-35.8Q408.57-36.1 407.67-36.1L407.67-36.1Q406.42-36.1 405.64-35.55 404.87-35 404.87-34.05L404.87-34.05 404.87 1 403.72 1 381.62-33.35 381.67-3Q381.67-2.05 382.59-1.5 383.52-0.95 384.87-0.95L384.87-0.95Q385.92-0.95 386.87-1.25L386.87-1.25 386.87 0 375.97 0 375.97-1.25Q376.92-0.95 377.87-0.95L377.87-0.95Q379.07-0.95 379.79-1.5 380.52-2.05 380.52-3L380.52-3 380.52-34Q380.52-34.95 379.77-35.5 379.02-36.05 377.82-36.05L377.82-36.05Q376.97-36.05 375.97-35.75L375.97-35.75 375.97-37 383.82-37 403.72-6.85 403.72-34.05Q403.72-35 402.87-35.55 402.02-36.1 400.72-36.1L400.72-36.1Q399.72-36.1 398.77-35.8L398.77-35.8 398.77-37.05Z" fill="#a437db" data-fill-palette-color="primary"></path></g></svg></g></svg></g></svg></g></svg></g><g transform="matrix(1,0,0,1,404.4650709930729,0)"><svg viewBox="0 0 54.52288907263948 52.36486602800296" height="52.36486602800296" width="54.52288907263948"><g><svg xmlns="http://www.w3.org/2000/svg" xmlns:xlink="http://www.w3.org/1999/xlink" version="1.1" x="0" y="0" viewBox="6.987984657287598 8.153348922729492 86.15674591064453 82.74665069580078" style="enable-background:new 0 0 100 100;" xml:space="preserve" height="52.36486602800296" width="54.52288907263948" class="icon-icon-0" data-fill-palette-color="accent" id="icon-0"><path d="M59.5 90.9c-2.3 0-4.6-0.4-6.9-1.1L21.2 79C10.9 75.5 5 64.9 7.6 54.3l7.2-30c1.7-6.9 6.7-12.5 13.4-14.9S42.3 8.1 48 12.4l36.9 28.2c4.8 3.7 7.8 9.3 8.2 15.3s-1.9 12-6.2 16.3L74.2 84.8C70.2 88.8 64.9 90.9 59.5 90.9zM35.2 12.1c-1.9 0-3.8 0.3-5.7 1C24.1 15 20 19.5 18.7 25.2l-7.2 30c-2.1 8.6 2.7 17.2 11 20.1L53.9 86c6.2 2.1 12.9 0.6 17.5-4l12.7-12.6c3.5-3.5 5.3-8.3 5-13.2s-2.7-9.4-6.6-12.4L45.5 15.6C42.5 13.3 38.9 12.1 35.2 12.1z" fill="#a437db" data-fill-palette-color="accent"></path></svg></g></svg></g></svg></g><defs></defs></svg><rect width="395.52" height="45.12395446806606" fill="none" stroke="none" visibility="hidden"></rect></g></svg></g></svg>